<svg xmlns="http://www.w3.org/2000/svg" version="1.1" xmlns:xlink="http://www.w3.org/1999/xlink" xmlns:svgjs="http://svgjs.com/svgjs" width="1000" height="1000"><rect width="1000" height="1000" rx="350" ry="350" fill="#555555"></rect><g transform="matrix(50,0,0,50,102.296875,100)"><svg xmlns="http://www.w3.org/2000/svg" version="1.1" xmlns:xlink="http://www.w3.org/1999/xlink" xmlns:svgjs="http://svgjs.com/svgjs" width="16" height="16"><svg version="1.1" xmlns="http://www.w3.org/2000/svg" width="16" height="16">
<path d="M0 0 C3 1 3 1 4.1875 3.0625 C4.455625 3.701875 4.72375 4.34125 5 5 C5.66 3.35 6.32 1.7 7 0 C7.66 0 8.32 0 9 0 C8.125 6.875 8.125 6.875 7 8 C6.76924918 9.34747084 6.58846937 10.70377565 6.4375 12.0625 C6.293125 13.361875 6.14875 14.66125 6 16 C5.01 16 4.02 16 3 16 C2.8046875 13.98177083 2.609375 11.96354167 2.4140625 9.9453125 C2.13625251 7.77331755 2.13625251 7.77331755 0 6 C-0.125 2.875 -0.125 2.875 0 0 Z " fill="#0084FF" transform="translate(0,0)"></path>
<path d="M0 0 C0.66 0 1.32 0 2 0 C2.16834933 1.77067416 2.33461909 3.54154612 2.5 5.3125 C2.5928125 6.29863281 2.685625 7.28476563 2.78125 8.30078125 C3 11 3 11 3 14 C2.01 14 1.02 14 0 14 C-1.33257403 4.58997722 -1.33257403 4.58997722 0 0 Z " fill="#FF0051" transform="translate(13,2)"></path>
<path d="M0 0 C0.66 0 1.32 0 2 0 C2 2.97 2 5.94 2 9 C0.68 9 -0.64 9 -2 9 C-2 7.35 -2 5.7 -2 4 C-1.34 4 -0.68 4 0 4 C0 2.68 0 1.36 0 0 Z M0 5 C1 8 1 8 1 8 Z " fill="#FF0051" transform="translate(9,7)"></path>
</svg></svg></g></svg>